<svg xmlns="http://www.w3.org/2000/svg" viewBox="0 0 400 400" role="img">
  <defs>
    <linearGradient id="bg-content" x1="0%" y1="0%" x2="100%" y2="100%">
      <stop offset="0%" stop-color="#EDF6FF"/>
      <stop offset="55%" stop-color="#FFFFFF"/>
      <stop offset="100%" stop-color="#D6E8F7"/>
    </linearGradient>
    <linearGradient id="plate-content" x1="0%" y1="0%" x2="100%" y2="100%">
      <stop offset="0%" stop-color="#0078C1"/>
      <stop offset="100%" stop-color="#14B8A6"/>
    </linearGradient>
    <filter id="shadow-content" x="-20%" y="-20%" width="140%" height="140%">
      <feDropShadow dx="0" dy="8" stdDeviation="12" flood-color="#0C2340" flood-opacity="0.12"/>
    </filter>
  </defs>
  <rect width="400" height="400" fill="url(#bg-content)"/>
  <circle cx="350" cy="55" r="70" fill="#0078C1" opacity="0.09"/>
  <circle cx="45" cy="355" r="90" fill="#14B8A6" opacity="0.08"/>
  <circle cx="320" cy="330" r="40" fill="#C9A227" opacity="0.12"/>
  <g filter="url(#shadow-content)">
    <rect x="108" y="108" width="184" height="184" rx="44" fill="#FFFFFF"/>
    <rect x="118" y="118" width="164" height="164" rx="38" fill="url(#plate-content)" opacity="0.14"/>
  </g>
  <g transform="translate(200, 200)"><g fill="#0078C1"><rect x="-50" y="-42" width="100" height="16" rx="6"/><rect x="-50" y="-16" width="76" height="10" rx="5" opacity="0.5"/><rect x="-50" y="2" width="88" height="10" rx="5" opacity="0.38"/><rect x="-50" y="20" width="64" height="10" rx="5" opacity="0.26"/><rect x="-50" y="38" width="48" height="10" rx="5" opacity="0.18"/></g></g>
</svg>