<svg xmlns="http://www.w3.org/2000/svg" viewBox="0 0 400 400" role="img">
  <defs>
    <linearGradient id="bg-reputation" x1="0%" y1="0%" x2="100%" y2="100%">
      <stop offset="0%" stop-color="#EDF6FF"/>
      <stop offset="55%" stop-color="#FFFFFF"/>
      <stop offset="100%" stop-color="#D6E8F7"/>
    </linearGradient>
    <linearGradient id="plate-reputation" x1="0%" y1="0%" x2="100%" y2="100%">
      <stop offset="0%" stop-color="#14B8A6"/>
      <stop offset="100%" stop-color="#0C2340"/>
    </linearGradient>
    <filter id="shadow-reputation" x="-20%" y="-20%" width="140%" height="140%">
      <feDropShadow dx="0" dy="8" stdDeviation="12" flood-color="#0C2340" flood-opacity="0.12"/>
    </filter>
  </defs>
  <rect width="400" height="400" fill="url(#bg-reputation)"/>
  <circle cx="350" cy="55" r="70" fill="#14B8A6" opacity="0.09"/>
  <circle cx="45" cy="355" r="90" fill="#0C2340" opacity="0.08"/>
  <circle cx="320" cy="330" r="40" fill="#C9A227" opacity="0.12"/>
  <g filter="url(#shadow-reputation)">
    <rect x="108" y="108" width="184" height="184" rx="44" fill="#FFFFFF"/>
    <rect x="118" y="118" width="164" height="164" rx="38" fill="url(#plate-reputation)" opacity="0.14"/>
  </g>
  <g transform="translate(200, 200)"><g fill="none" stroke="#0078C1" stroke-width="6"><circle cx="0" cy="0" r="38"/><path d="M0-38a52 20 0 0 1 0 76M-38 0h76M-28-28c16 10 16 54 0 64M28-28c-16 10-16 54 0 64"/></g></g>
</svg>