<svg xmlns="http://www.w3.org/2000/svg" width="960" height="640" viewBox="-96 -96 1152 832" role="img" aria-label="Video marketing">
  <rect width="960" height="640" fill="#D4E4F2"/>
  <rect x="120" y="80" width="720" height="420" rx="24" fill="#B0C4D8"/>
  <rect x="150" y="110" width="660" height="360" rx="12" fill="#0C2340"/>
  <circle cx="480" cy="290" r="72" fill="#0078C1" opacity="0.18"/>
  <polygon points="455,250 455,330 535,290" fill="#C5D9EA"/>
  <rect x="150" y="500" width="180" height="12" rx="6" fill="#B0C4D8"/>
  <rect x="150" y="528" width="120" height="12" rx="6" fill="#B0C4D8"/>
  <rect x="620" y="500" width="190" height="36" rx="18" fill="#0078C1"/>
  <rect x="350" y="500" width="240" height="8" rx="4" fill="#C9A227" opacity="0.85"/>
  <circle cx="350" cy="504" r="14" fill="#0078C1"/>
  <path d="M760 140h48v48h-48z" fill="#0078C1" opacity="0.35" rx="8"/>
  <path d="M92 180c0-22 18-40 40-40h36v80h-36c-22 0-40-18-40-40z" fill="#0078C1" opacity="0.25"/>
</svg>